<?xml version="1.0" standalone="no"?>
<!DOCTYPE svg PUBLIC "-//W3C//DTD SVG 20010904//EN"
 "http://www.w3.org/TR/2001/REC-SVG-20010904/DTD/svg10.dtd">
<svg version="1.0" xmlns="http://www.w3.org/2000/svg"
 width="3840.000000pt" height="2160.000000pt" viewBox="0 0 3840.000000 2160.000000"
 preserveAspectRatio="xMidYMid meet">

<g transform="translate(0.000000,2160.000000) scale(0.100000,-0.100000)"
fill="#000000" stroke="none">
<path d="M24665 12924 c-326 -34 -725 -121 -1105 -242 -245 -79 -398 -133
-700 -250 -300 -116 -751 -316 -1147 -508 -541 -262 -1188 -678 -1648 -1060
-155 -128 -465 -437 -552 -549 -193 -248 -292 -444 -323 -638 -15 -92 -8 -256
14 -339 80 -297 339 -504 751 -601 209 -49 326 -61 640 -61 375 -1 529 12 856
74 343 66 677 164 1099 324 395 149 964 438 1440 731 637 392 1180 835 1493
1217 241 294 402 601 453 865 19 97 25 276 13 368 -44 342 -278 565 -677 646
-89 18 -147 22 -337 24 -126 2 -248 1 -270 -1z m584 -113 c192 -41 322 -102
422 -201 126 -126 173 -253 174 -470 0 -105 -6 -159 -24 -240 -54 -247 -187
-499 -407 -775 -104 -130 -372 -401 -534 -539 -264 -226 -669 -510 -975 -685
-262 -150 -681 -356 -925 -456 -230 -95 -308 -125 -475 -185 -521 -186 -976
-295 -1390 -330 -423 -37 -787 19 -1033 159 -83 47 -95 57 -165 126 -65 65
-110 133 -144 220 -26 66 -28 78 -28 230 0 143 3 171 28 264 100 372 356 734
789 1116 436 385 948 696 1719 1045 899 408 1657 651 2254 724 72 9 144 18
160 20 17 2 125 3 240 1 169 -2 230 -7 314 -24z"/>
<path d="M7460 12837 c-3 -2 -88 -7 -190 -11 -102 -3 -205 -8 -230 -10 -25 -3
-97 -7 -160 -11 -63 -3 -133 -8 -155 -10 -22 -2 -77 -7 -121 -10 -45 -3 -95
-8 -110 -10 -16 -2 -58 -6 -94 -9 -274 -27 -461 -50 -715 -87 -500 -73 -1022
-173 -1510 -289 -182 -44 -642 -168 -780 -210 -33 -10 -107 -33 -165 -50 -758
-228 -1562 -552 -2080 -838 -504 -278 -781 -512 -881 -742 -33 -75 -34 -196
-2 -256 138 -260 687 -470 1538 -589 94 -13 204 -26 245 -30 41 -4 101 -13
132 -20 31 -7 121 -14 199 -14 164 -2 200 -14 238 -81 58 -104 25 -334 -86
-600 -46 -111 -70 -145 -109 -154 -70 -18 34 -115 124 -116 21 0 41 8 55 23
31 30 124 197 152 271 32 83 143 311 238 486 146 270 441 684 596 838 l83 83
-22 24 c-29 31 -75 40 -127 26 -39 -11 -191 -117 -304 -212 -177 -150 -461
-347 -598 -415 -142 -70 -212 -85 -371 -79 -74 3 -151 7 -170 10 -19 3 -89 12
-155 20 -515 66 -968 236 -1140 427 -69 77 -90 129 -90 223 0 92 19 136 107
244 209 259 818 628 1553 942 77 33 154 66 170 74 35 15 324 129 440 173 417
158 907 313 1390 441 642 168 1613 317 2455 376 457 31 606 36 1080 37 526 0
782 -19 1036 -77 257 -59 411 -147 474 -272 36 -70 34 -183 -4 -273 -134 -312
-589 -698 -1242 -1053 -349 -189 -723 -360 -1259 -571 -899 -356 -1932 -636
-3095 -840 -313 -55 -361 -66 -439 -101 -60 -27 -111 -73 -111 -100 0 -22 42
-45 82 -45 21 0 113 16 205 36 425 90 894 162 1193 184 183 14 210 8 318 -64
87 -57 158 -133 330 -351 74 -93 181 -215 238 -271 149 -146 243 -187 434
-188 l95 -1 100 61 c97 59 470 270 865 489 107 60 247 141 310 180 63 40 130
80 148 89 l33 17 52 -45 c155 -132 228 -200 384 -355 343 -339 437 -401 606
-401 67 0 65 -1 292 135 457 274 794 463 1037 581 l68 33 -33 -57 c-29 -52
-32 -66 -35 -162 -3 -87 0 -114 16 -158 54 -142 183 -237 397 -293 82 -22 109
-24 305 -23 441 2 999 107 1538 290 107 36 196 63 199 60 8 -7 -58 -124 -134
-237 -55 -84 -64 -102 -58 -128 10 -48 27 -55 142 -56 91 -1 107 -4 119 -20
13 -17 14 -16 14 14 0 24 11 46 39 80 35 42 177 238 245 338 31 46 28 45 226
78 52 9 97 18 100 20 3 2 50 8 105 15 128 14 382 57 460 77 89 23 231 22 275
-1 58 -31 162 -119 323 -274 215 -208 275 -238 506 -251 138 -8 510 -6 606 3
33 3 94 8 135 11 161 13 345 37 377 50 22 9 33 21 33 34 0 22 -25 51 -45 51
-7 0 -15 7 -19 15 -6 17 -38 15 -157 -10 -39 -8 -143 -22 -232 -31 -159 -17
-161 -17 -226 4 -85 28 -270 130 -441 245 -74 50 -137 94 -140 97 -3 3 -34 27
-70 54 -90 69 -200 157 -230 184 -63 59 -153 77 -255 52 -22 -6 -175 -37 -340
-71 -165 -33 -317 -65 -338 -70 -37 -10 -363 -69 -380 -69 -18 0 4 18 30 25
43 10 191 70 285 114 48 23 92 41 97 41 6 0 55 19 109 41 53 23 122 51 152 63
119 48 496 220 513 234 27 24 21 66 -14 96 -30 26 -43 30 -87 28 -27 -1 -37
-6 -202 -102 -129 -75 -298 -159 -526 -260 -217 -97 -485 -210 -495 -210 -6 0
9 28 34 63 98 137 468 697 654 989 255 401 289 467 264 506 -10 16 -92 42
-118 37 -104 -18 -315 -25 -363 -13 -19 6 -56 30 -82 56 -52 50 -53 49 -37
-45 18 -103 -10 -190 -161 -498 -145 -294 -278 -533 -557 -996 l-124 -206
-107 -51 c-263 -126 -498 -191 -917 -256 -351 -54 -609 -36 -771 56 -70 39
-138 110 -172 178 -24 48 -27 66 -26 145 1 106 21 165 90 262 98 138 279 238
518 289 54 11 82 12 130 4 132 -24 261 -71 367 -136 66 -40 134 -47 162 -16
20 22 21 33 6 65 -15 33 -65 59 -184 96 -243 74 -504 92 -720 51 -171 -33
-401 -131 -735 -310 -209 -113 -696 -365 -978 -507 -199 -100 -228 -106 -322
-58 -113 57 -138 78 -500 430 -137 133 -206 190 -283 230 -47 25 -57 35 -57
56 0 14 -3 29 -7 32 -7 8 -377 -181 -549 -281 -369 -214 -957 -516 -1038 -532
-131 -27 -247 17 -365 138 -146 150 -383 422 -475 546 -44 58 -81 70 -211 63
-61 -3 -130 -10 -155 -16 -79 -17 -258 -37 -249 -27 3 4 48 17 100 30 520 133
1316 385 1754 556 44 17 103 40 130 50 28 10 106 41 175 70 69 29 150 62 180
74 261 107 816 379 1060 521 656 380 1052 750 1144 1067 33 115 13 267 -46
351 -40 56 -52 68 -113 112 -157 112 -366 173 -720 211 -33 3 -73 8 -90 11
-37 7 -999 16 -1005 10z"/>
<path d="M37625 10045 c-38 -19 -97 -56 -130 -83 -38 -31 -103 -68 -176 -100
-108 -48 -347 -159 -639 -300 -69 -33 -219 -104 -335 -159 -115 -55 -302 -146
-415 -201 -113 -56 -225 -105 -250 -111 -25 -6 -85 -11 -135 -11 -86 0 -94 2
-170 41 -167 85 -291 184 -510 405 -153 155 -191 176 -328 182 -132 6 -187 -7
-379 -87 -89 -38 -291 -123 -448 -189 -157 -66 -418 -182 -580 -257 -162 -76
-332 -155 -377 -176 -46 -21 -83 -43 -83 -49 0 -5 -5 -10 -11 -10 -28 0 43
521 103 761 l22 86 -22 30 c-31 43 -70 57 -150 50 -127 -9 -352 -98 -735 -286
-301 -149 -428 -216 -902 -474 l-219 -120 -86 0 c-134 1 -420 56 -594 115 -94
32 -211 96 -266 145 -27 24 -61 68 -76 99 -24 49 -26 62 -22 147 5 111 26 157
102 232 137 133 434 202 622 144 38 -12 94 -36 126 -55 58 -35 172 -149 163
-163 -2 -5 -26 -11 -52 -15 -27 -3 -130 -26 -230 -51 -101 -25 -209 -48 -240
-51 -67 -8 -93 -26 -93 -65 0 -34 23 -59 55 -59 13 0 81 17 152 39 267 81 466
135 543 146 97 15 122 64 79 153 -58 118 -189 193 -399 226 -40 7 -247 8 -300
2 -176 -19 -328 -43 -445 -72 -77 -18 -203 -47 -280 -64 -77 -16 -150 -32
-162 -35 -18 -4 -23 -12 -23 -39 0 -19 7 -39 17 -47 20 -17 98 -15 173 5 30 8
56 13 57 12 1 -1 -25 -22 -58 -46 -119 -87 -182 -191 -187 -312 -10 -196 108
-365 330 -475 161 -79 385 -130 615 -140 263 -11 394 35 776 274 345 216 771
448 1076 587 125 56 147 64 136 46 -6 -10 -58 -270 -70 -350 -4 -25 -24 -132
-46 -238 -36 -179 -38 -196 -24 -228 23 -55 63 -66 250 -72 l160 -4 100 54
c234 125 637 320 985 475 129 57 249 110 265 118 92 42 144 57 197 56 49 0 64
-5 110 -37 71 -50 251 -187 313 -239 251 -209 451 -330 605 -364 106 -24 251
-6 375 47 87 36 268 127 389 194 367 204 1155 576 1275 603 64 14 113 -10 192
-94 232 -245 404 -416 460 -454 65 -46 -25 -193 -160 -261 -59 -30 -177 -64
-242 -69 -123 -10 -398 57 -534 131 -37 20 -55 38 -70 69 l-20 41 -30 -23
c-87 -69 -92 -85 -45 -138 75 -86 353 -147 672 -147 81 0 178 6 223 14 247 45
449 170 531 328 23 43 28 67 29 123 0 63 -3 76 -37 130 -20 33 -80 107 -133
165 -109 118 -287 335 -317 386 -11 18 -18 46 -16 61 3 24 8 28 38 31 19 2 39
7 43 11 14 14 11 72 -4 82 -21 13 -28 11 -104 -26z"/>
<path d="M25530 9864 c-149 -19 -795 -138 -925 -171 -90 -22 -119 -59 -77 -96
24 -22 56 -21 128 3 32 12 120 36 194 55 292 74 441 93 454 59 11 -30 6 -123
-13 -221 -10 -54 -31 -190 -47 -302 -28 -203 -28 -203 -8 -239 27 -49 61 -71
121 -79 42 -4 63 -1 105 17 44 19 990 489 1094 544 46 24 136 39 187 32 25 -4
67 -21 93 -39 27 -17 157 -138 289 -267 306 -300 344 -330 423 -330 30 0 58
13 128 58 49 32 161 103 249 156 88 54 264 162 390 242 244 153 405 247 495
288 89 41 138 106 105 140 -33 33 -92 15 -245 -72 -70 -40 -509 -334 -606
-406 -118 -87 -205 -137 -231 -134 -14 2 -127 107 -297 276 -229 227 -284 277
-332 299 -113 52 -266 41 -429 -29 -92 -40 -466 -230 -815 -413 -107 -57 -205
-106 -217 -110 -21 -6 -23 -3 -23 31 0 30 41 253 109 594 18 86 -18 111 -162
115 -56 2 -118 1 -137 -1z"/>
</g>
</svg>
